<svg width="512" height="512" viewBox="0 0 512 512" fill="none" xmlns="http://www.w3.org/2000/svg">
<g clip-path="url(#clip0_1413_832)">
<path d="M408.401 0H103.599C46.3826 0 0 47.4944 0 106.082V405.918C0 464.506 46.3826 512 103.599 512H408.401C465.617 512 512 464.506 512 405.918V106.082C512 47.4944 465.617 0 408.401 0Z" fill="#437DF6"/>
<path d="M246.853 232.874C246.853 220.985 246.853 209.172 246.853 197.283C246.853 193.985 246.853 190.686 247.312 187.465C248.305 180.868 250.675 174.809 255.032 169.669C257.172 167.138 259.847 165.067 262.752 163.456C266.039 161.616 269.096 159.468 271.007 156.17C273.377 152.104 274.294 147.732 273.147 142.976C271.925 137.684 268.943 133.772 264.281 131.241C259.542 128.709 254.573 128.326 249.528 130.397C246.012 131.778 243.261 134.155 241.12 137.3C239.286 140.062 238.445 143.13 238.369 146.428C238.369 149.573 237.146 151.874 234.547 153.715C231.26 156.016 225.833 155.019 223.54 151.644C222.546 150.11 222.011 148.499 222.011 146.735C221.858 140.905 223.31 135.459 226.062 130.397C228.126 126.638 230.878 123.34 234.164 120.579C238.216 117.204 242.725 114.903 247.77 113.599C253.503 112.141 259.159 112.218 264.816 113.752C268.408 114.749 271.848 116.36 274.982 118.508C279.568 121.653 283.161 125.565 285.76 130.397C287.059 132.851 287.823 135.613 288.817 138.221C290.269 142.056 290.04 146.045 289.811 150.033C289.429 155.402 287.671 160.312 284.842 164.837C281.632 170.13 277.275 174.118 271.848 176.956C268.026 178.951 266.88 182.326 266.192 186.161C264.51 195.442 265.198 204.877 265.122 214.158C264.969 233.948 264.969 253.737 265.122 273.527C265.122 278.282 261.682 282.194 256.713 281.811C254.803 281.657 252.815 281.734 250.981 281.427C248.84 281.044 247.082 278.896 246.93 276.672C246.777 275.138 246.777 273.604 246.777 272.069C246.777 258.953 246.777 245.837 246.777 232.72C246.777 232.72 246.777 232.72 246.853 232.72V232.874Z" fill="white"/>
<path d="M148.289 368.937C176.616 368.937 199.579 345.894 199.579 317.468C199.579 289.043 176.616 266 148.289 266C119.963 266 97 289.043 97 317.468C97 345.894 119.963 368.937 148.289 368.937Z" fill="#FFD217"/>
<rect x="97" y="354" width="106" height="32" fill="#437DF6"/>
<path d="M359.007 270.459C353.81 232.797 323.388 202.422 285.245 197.82C274.85 196.593 264.76 197.36 255.358 199.661C255.358 199.661 255.206 199.661 255.053 199.661C254.288 199.814 253.524 200.044 252.836 200.275C200.247 213.851 184.042 272.683 180.45 289.558C179.533 293.93 178.386 298.226 177.01 302.444C170.742 321.544 152.703 362.58 106 346.626C106 346.626 117.083 366.876 149.34 366.876H358.855C385.455 366.876 406.934 345.245 406.934 318.629C406.934 292.013 385.531 270.535 359.084 270.382L359.007 270.459Z" fill="white"/>
</g>
<defs>
<clipPath id="clip0_1413_832">
<rect width="512" height="512" fill="white"/>
</clipPath>
</defs>
</svg>
