<svg width="30" height="30" viewBox="0 0 30 30" fill="none" xmlns="http://www.w3.org/2000/svg">
<path d="M27.1875 15C27.1875 17.4105 26.4727 19.7668 25.1335 21.771C23.7944 23.7752 21.8909 25.3373 19.664 26.2598C17.437 27.1822 14.9865 27.4236 12.6223 26.9533C10.2582 26.4831 8.08659 25.3223 6.38214 23.6179C4.67769 21.9134 3.51694 19.7418 3.04668 17.3777C2.57643 15.0135 2.81778 12.563 3.74022 10.336C4.66267 8.10907 6.22477 6.20564 8.22899 4.86646C10.2332 3.52728 12.5895 2.8125 15 2.8125C18.2311 2.81653 21.3287 4.10186 23.6134 6.38659C25.8981 8.67132 27.1835 11.7689 27.1875 15Z" fill="#434343"/>
<g clip-path="url(#clip0_11767_4565)">
<path d="M20.0254 10.8587L19.1413 9.97455L15 14.1162L10.8588 9.97455L9.97461 10.8587L14.1163 15L9.97461 19.1412L10.8588 20.0254L15 15.8837L19.1413 20.0254L20.0254 19.1412L15.8838 15L20.0254 10.8587Z" fill="white"/>
</g>
<defs>
<clipPath id="clip0_11767_4565">
<rect width="10" height="10" fill="white" transform="translate(10 10)"/>
</clipPath>
</defs>
</svg>
