<svg width="28" height="28" viewBox="0 0 28 28" fill="none" xmlns="http://www.w3.org/2000/svg">
<path d="M8.93729 16.94L16.9373 8.93998C17.0768 8.80045 17.2425 8.68977 17.4248 8.61425C17.6071 8.53874 17.8025 8.49987 17.9998 8.49987C18.1971 8.49987 18.3925 8.53874 18.5748 8.61425C18.7571 8.68977 18.9228 8.80045 19.0623 8.93998C19.2018 9.07951 19.3125 9.24515 19.388 9.42745C19.4635 9.60976 19.5024 9.80515 19.5024 10.0025C19.5024 10.1998 19.4635 10.3952 19.388 10.5775C19.3125 10.7598 19.2018 10.9254 19.0623 11.065L11.0623 19.065C10.7805 19.3468 10.3983 19.5051 9.99979 19.5051C9.60128 19.5051 9.21909 19.3468 8.93729 19.065C8.6555 18.7832 8.49719 18.401 8.49719 18.0025C8.49719 17.604 8.6555 17.2218 8.93729 16.94ZM25.3123 2.68998C23.9044 1.28524 21.9968 0.496338 20.0079 0.496338C18.0191 0.496338 16.1115 1.28524 14.7035 2.68998L10.9385 6.45123C10.6568 6.73302 10.4984 7.11521 10.4984 7.51373C10.4984 7.71105 10.5373 7.90644 10.6128 8.08875C10.6883 8.27105 10.799 8.4367 10.9385 8.57623C11.0781 8.71576 11.2437 8.82644 11.426 8.90195C11.6083 8.97746 11.8037 9.01633 12.001 9.01633C12.3996 9.01633 12.7818 8.85802 13.0635 8.57623L16.8223 4.81873C17.6663 3.97451 18.8112 3.50017 20.005 3.50005C21.1988 3.49993 22.3437 3.97405 23.1879 4.8181C24.0321 5.66215 24.5065 6.807 24.5066 8.00078C24.5067 9.19457 24.0326 10.3395 23.1885 11.1837L19.4248 14.94C19.2853 15.0795 19.1746 15.2452 19.0991 15.4275C19.0236 15.6098 18.9847 15.8052 18.9847 16.0025C18.9847 16.1998 19.0236 16.3952 19.0991 16.5775C19.1746 16.7598 19.2853 16.9254 19.4248 17.065C19.5643 17.2045 19.73 17.3152 19.9123 17.3907C20.0946 17.4662 20.29 17.5051 20.4873 17.5051C20.6846 17.5051 20.88 17.4662 21.0623 17.3907C21.2446 17.3152 21.4103 17.2045 21.5498 17.065L25.3098 13.3075C26.7153 11.8987 27.5042 9.98979 27.5035 7.99983C27.5028 6.00986 26.7125 4.1015 25.306 2.69373L25.3123 2.68998ZM14.9398 19.425L11.181 23.185C10.763 23.6029 10.2668 23.9344 9.72066 24.1606C9.17453 24.3867 8.5892 24.5031 7.9981 24.503C7.407 24.503 6.82169 24.3865 6.27561 24.1602C5.72952 23.934 5.23335 23.6024 4.81542 23.1844C3.97137 22.3401 3.49725 21.1952 3.49737 20.0014C3.49748 18.8076 3.97183 17.6628 4.81604 16.8187L8.57354 13.06C8.71307 12.9204 8.82375 12.7548 8.89927 12.5725C8.97478 12.3902 9.01365 12.1948 9.01365 11.9975C9.01365 11.8002 8.97478 11.6048 8.89927 11.4225C8.82375 11.2402 8.71307 11.0745 8.57354 10.935C8.43401 10.7954 8.26837 10.6848 8.08606 10.6093C7.90376 10.5337 7.70837 10.4949 7.51104 10.4949C7.31372 10.4949 7.11833 10.5337 6.93602 10.6093C6.75372 10.6848 6.58807 10.7954 6.44854 10.935L2.69354 14.6975C1.99696 15.3941 1.44442 16.2212 1.06747 17.1314C0.690511 18.0416 0.496524 19.0171 0.496582 20.0023C0.496699 21.9919 1.28719 23.9 2.69417 25.3069C4.10114 26.7137 6.00934 27.5039 7.99899 27.5038C9.98863 27.5037 11.8967 26.7132 13.3035 25.3062L17.061 21.5475C17.3428 21.2657 17.5011 20.8835 17.5011 20.485C17.5011 20.0865 17.3428 19.7043 17.061 19.4225C16.7793 19.1407 16.3971 18.9824 15.9985 18.9824C15.6 18.9824 15.2178 19.1407 14.936 19.4225L14.9398 19.425Z" fill="white"/>
</svg>
