<svg width="26" height="26" viewBox="0 0 26 26" fill="none" xmlns="http://www.w3.org/2000/svg">
<path d="M20.9815 3.25L13.117 11.1157C13.117 11.1157 13.117 11.1157 13.117 11.1157C12.8824 11.3503 12.7507 11.6683 12.7507 12C12.7507 12.3317 12.8824 12.6498 13.117 12.8843C13.3515 13.1188 13.6696 13.2506 14.0012 13.2506C14.3329 13.2506 14.651 13.1188 14.8855 12.8843L14.8855 12.8843L22.75 5.01862V10C22.75 10.3315 22.8817 10.6495 23.1161 10.8839C23.3505 11.1183 23.6685 11.25 24 11.25C24.3315 11.25 24.6495 11.1183 24.8839 10.8839C25.1183 10.6495 25.25 10.3315 25.25 10V2C25.25 1.66848 25.1183 1.35054 24.8839 1.11612C24.6495 0.881696 24.3315 0.75 24 0.75H16C15.6685 0.75 15.3505 0.881696 15.1161 1.11612C14.8817 1.35054 14.75 1.66848 14.75 2C14.75 2.33152 14.8817 2.64946 15.1161 2.88388C15.3505 3.1183 15.6685 3.25 16 3.25H20.9815ZM20 12.75C19.6685 12.75 19.3505 12.8817 19.1161 13.1161C18.8817 13.3505 18.75 13.6685 18.75 14V22.75H3.25V7.25H12C12.3315 7.25 12.6495 7.1183 12.8839 6.88388C13.1183 6.64946 13.25 6.33152 13.25 6C13.25 5.66848 13.1183 5.35054 12.8839 5.11612C12.6495 4.8817 12.3315 4.75 12 4.75H3C2.40326 4.75 1.83097 4.98705 1.40901 5.40901C0.987053 5.83097 0.75 6.40326 0.75 7V23C0.75 23.5967 0.987053 24.169 1.40901 24.591C1.83097 25.0129 2.40326 25.25 3 25.25H19C19.5967 25.25 20.169 25.0129 20.591 24.591C21.0129 24.169 21.25 23.5967 21.25 23V14C21.25 13.6685 21.1183 13.3505 20.8839 13.1161C20.6495 12.8817 20.3315 12.75 20 12.75Z" fill="white" stroke="white" stroke-width="0.5"/>
</svg>
